<svg version="1.2" xmlns="http://www.w3.org/2000/svg" viewBox="0 0 96 75" width="96" height="75">
	<title>Frame-svg</title>
	<defs>
		<clipPath clipPathUnits="userSpaceOnUse" id="cp1">
			<path d="m0-22h125v97h-125z"/>
		</clipPath>
		<clipPath clipPathUnits="userSpaceOnUse" id="cp2">
			<path d="m125-22h-125v97h125z"/>
		</clipPath>
		<clipPath clipPathUnits="userSpaceOnUse" id="cp3">
			<path d="m125-22h-125v97h125z"/>
		</clipPath>
		<clipPath clipPathUnits="userSpaceOnUse" id="cp4">
			<path d="m125-22h-125v97h125z"/>
		</clipPath>
		<clipPath clipPathUnits="userSpaceOnUse" id="cp5">
			<path d="m125-22h-125v97h125z"/>
		</clipPath>
		<clipPath clipPathUnits="userSpaceOnUse" id="cp6">
			<path d="m125-22h-125v97h125z"/>
		</clipPath>
		<clipPath clipPathUnits="userSpaceOnUse" id="cp7">
			<path d="m125-22h-125v97h125z"/>
		</clipPath>
		<clipPath clipPathUnits="userSpaceOnUse" id="cp8">
			<path d="m125-22h-125v97h125z"/>
		</clipPath>
		<clipPath clipPathUnits="userSpaceOnUse" id="cp9">
			<path d="m125-22h-125v97h125z"/>
		</clipPath>
		<clipPath clipPathUnits="userSpaceOnUse" id="cp10">
			<path d="m125-22h-125v97h125z"/>
		</clipPath>
		<clipPath clipPathUnits="userSpaceOnUse" id="cp11">
			<path d="m125-22h-125v97h125z"/>
		</clipPath>
		<clipPath clipPathUnits="userSpaceOnUse" id="cp12">
			<path d="m125-22h-125v97h125z"/>
		</clipPath>
		<clipPath clipPathUnits="userSpaceOnUse" id="cp13">
			<path d="m125-22h-125v97h125z"/>
		</clipPath>
	</defs>
	<style>
		.s0 { fill: #519032 } 
		.s1 { fill: #006a6e } 
		.s2 { fill: #b34215 } 
		.s3 { fill: #002e6e } 
		.s4 { fill: #00529c } 
		.s5 { fill: #72bf44 } 
		.s6 { fill: #00b0bd } 
		.s7 { fill: #f15a22 } 
	</style>
	<g id="Clip-Path" clip-path="url(#cp1)">
		<g>
			<g id="Clip-Path" clip-path="url(#cp2)">
				<g>
					<path class="s0" d="m55.8 7.6c6.4-2.7 12.5 2.5 4.4 9.2-5 4.2-13 8.7-17.8 20.1 3.6-13.2 16.8-25.2 13.4-29.3z"/>
				</g>
			</g>
			<g id="Clip-Path" clip-path="url(#cp3)">
				<g>
					<path class="s1" d="m90.6 5c-7.1 1.1-12.5 6.4-18.9 5.8-6.7-0.6-7.7-6.3-14.7-5.3 0.5-0.3 2.1-0.7 8.3-0.8 9.5-0.2 25.3 0.3 25.3 0.3z"/>
				</g>
			</g>
			<g id="Clip-Path" clip-path="url(#cp4)">
				<g>
					<path class="s2" d="m88.8 36.6c-6-17.1 3.1-28.8 6.8-30.4 0 0-12.1 4.6-12.6 12.9-0.5 8.2 5.8 17.5 5.8 17.5z"/>
				</g>
			</g>
			<g id="Clip-Path" clip-path="url(#cp5)">
				<g>
					<path class="s3" d="m45.4 34.5c4.8-3.9 10.6-5.4 18.8-4 4.8 0.8 12.1 3.5 21.5 8.2 0.2 0.1-14.6-12-23.8-13.3-9.3-1.3-16.5 9.1-16.5 9.1z"/>
				</g>
			</g>
			<g id="Clip-Path" clip-path="url(#cp6)">
				<g>
					<path class="s4" d="m91.3 41.6c-12.9-6.1-19.1-12.4-27.5-13.7-7.7-1.2-14.8 2-19 7.3 4.4-8.1 14.3-17.4 20.7-17.6 1.5 0 3.8 0 6.5 2.3 5.4 4.8 8.3 12.5 19.3 21.7z"/>
				</g>
			</g>
			<g id="Clip-Path" clip-path="url(#cp7)">
				<g>
					<path class="s5" d="m55.1 7.2c6.8-2.2 11 1.9 8.1 5.4-3.8 4.2-15.5 6.5-21.4 26.4 0.9-19.9 17.9-28.6 13.3-31.8z"/>
				</g>
			</g>
			<g id="Clip-Path" clip-path="url(#cp8)">
				<g>
					<path class="s6" d="m54.7 6.3c7.9-6 21-2 36.9-1.4-8.3 1-14.1 4.5-19.3 4.3-7.8-0.4-9.1-6.2-17.6-2.9z"/>
				</g>
			</g>
			<g id="Clip-Path" clip-path="url(#cp9)">
				<g>
					<path class="s7" d="m74.9 18.3c-0.9-3.3 0.6-5.2 1.9-6.1 3.6-2.6 10.9-5.1 19.5-6.3 0 0-5.5 2.1-8.4 6.9v-0.1c-3 5-5.3 13 1.5 24.9-8.1-8.4-13.2-14.7-14.5-19.3z"/>
				</g>
			</g>
			<g id="Clip-Path" clip-path="url(#cp10)">
				<g>
					<path class="s3" d="m33.8 41.1c-0.1 8.1-1.4 16-3.6 23.6h8.2l1.5-8.1c0.8-4.3 2.5-8.1 7.3-8.1h1.1c1-2.6 2.3-5 4.1-7.3-0.9-0.3-2.1-0.7-3.9-0.7-3.2 0-5.9 2.2-7.7 5.3h-0.1c0.1-1.6 0.2-3.1 0.3-4.7h-7.2z"/>
				</g>
			</g>
			<g id="Clip-Path" clip-path="url(#cp11)">
				<g>
					<path class="s3" d="m83.1 41.2l-3.2 22.7c-0.3 1.8-0.5 2.8-0.9 3.5-0.4 0.6-1.1 0.9-1.6 1.1-1 0.2-2.5 0.4-4.1-0.1 0.1 1.8 0.4 3.9 1.1 6.1 0.2 0 1.7 0.5 3.9 0.4 1.9-0.1 4-0.5 5.5-1.6q0.7-0.5 1.3-1.2c1.5-1.9 2.3-4.6 2.8-8.6l3.2-20.7c-3.4-0.8-5.9-1.3-8-1.6z"/>
				</g>
			</g>
			<g id="Clip-Path" clip-path="url(#cp12)">
				<g>
					<path fill-rule="evenodd" class="s3" d="m76.7 40.5c-1.2 3.8-2.2 8.4-2.9 13.3-0.5 3.8-0.7 7.5-0.7 10.8h-7.7c0.1-1.3 0.2-2.7 0.3-4h-0.2c-2 3.5-4.9 4.6-7.5 4.6-4.2 0-7.3-3.3-7.3-8.4 0-5.9 2.9-12 9.4-14.8 4.8-2.1 11.7-1.8 14.9-1.6 1 0 1.7 0.1 1.7 0.1zm-10 8.6c0 0 0.2-1 0.6-2.3-0.2-0.1-1.2-0.1-1.6-0.1-3.8 0-6.4 5.1-6.4 8.6 0 2.1 1 3.3 2.4 3.3 1.5 0 3.5-1.5 4.5-7z"/>
				</g>
			</g>
			<g id="Clip-Path" clip-path="url(#cp13)">
				<g>
					<path fill-rule="evenodd" class="s3" d="m28 53.1c-1.3 6.8-6.4 12.3-13.7 12.3-1.7 0-3.3-0.4-4.2-1l-1.6 10h-8.5c3.5-13.5 4.8-27.9 5.1-33.9 0 0 4.5-0.3 9.1-0.3 6.5 0 13.6 1.6 14 9.4 0 1 0 2.4-0.2 3.5zm-10.9-5.8c-0.4-0.1-1-0.2-1.7-0.2-1.3 0-2.7 0.1-2.9 0.1-0.4 5.7-0.9 8.9-1.3 11.1 0 0 1.1 0.9 2.7 0.8 3.9-0.2 5.7-4.5 5.9-6.4 0.4-2.5 0.2-4.8-2.7-5.4z"/>
				</g>
			</g>
		</g>
	</g>
</svg>