<svg version="1.2" xmlns="http://www.w3.org/2000/svg" viewBox="0 0 206 53" width="206" height="53">
	<title>suvidha-svg</title>
	<style>
		.s0 { fill: #233e79 } 
		.s1 { fill: #e95821 } 
		.s2 { fill: #b64821 } 
	</style>
	<g id="Folder 1">
		<path class="s0" d="m20.5 31.3q-1.4-1.1-3.3-2.1l-3-1.4q-3.3-1.5-4.2-2c-1.7-1.1-2.6-2.2-2.6-3.5q0-1.6 1.5-2.5 1.5-1 3.9-1c2.7 0 5.2 0.9 7.6 2.7l0.8 0.6v-6.4l-0.4-0.1q-2.4-0.4-4.1-0.6-1.7-0.2-3.3-0.2c-3.8 0-6.7 0.8-8.8 2.3-2.1 1.6-3.2 3.6-3.2 6.1q0 2.9 2.1 5 1.9 1.8 6 3.8l3.9 1.8c2.4 1.2 3.2 2 3.5 2.5q0.7 1 0.7 2 0 1.9-1.7 3-1.8 1.3-4.9 1.3c-3.1 0-6.5-1.1-9.9-3.4l-1.1-0.6 1.8 6.8 0.3 0.1c3.1 0.9 5.9 1.4 8.4 1.4 3.8 0 7-0.9 9.4-2.8 2.5-1.9 3.7-4.2 3.7-6.8 0-2.5-1-4.5-3.1-6z"/>
		<path class="s0" d="m54.3 18.2q0.3-1.1 1.2-1.8l1.1-0.8h-11l0.9 0.8q0.9 0.9 1.2 1.6c0.2 0.3 0.4 1.2 0.4 3.3v14.7q0 1.9-0.5 3.2-0.5 1.2-1.2 1.8-2.1 1.7-5.4 1.8-3.8-0.1-5.5-2-0.8-0.8-1-2.2-0.3-1.4-0.3-4.3v-13q0-2 0.4-3.1 0.3-1 1.3-1.8l0.9-0.8h-11l1 0.8q1 0.9 1.4 2 0.3 1.1 0.3 2.9v13.9q0 1.6 0.1 2.7 0.1 1 0.4 2 0.5 2.1 1.8 3.5c2.1 2.4 5.1 3.6 8.8 3.6 3.1 0 6-1 8.9-2.8 0.6 1.1 2.3 1.9 3.6 1.9l4.4 0.1-1-0.9c-1-0.9-1.6-2.3-1.6-3.7v-20.3q0-1.9 0.4-3.1z"/>
		<path class="s0" d="m101.4 19.1q0.4-1.1 1.4-1.9l1-0.8h-11l0.9 0.8q1.4 1.3 1.6 2.7v21.4q0 1.9-0.3 2.9-0.3 1.1-1.3 2l-0.9 0.8h10.9l-0.9-0.8q-1.4-1.2-1.7-2.7v-21.4q0-1.8 0.3-3z"/>
		<path fill-rule="evenodd" class="s0" d="m136.3 31.3c0 4.1-1.4 7.7-4.2 10.7-1.7 1.8-3.8 3.1-6.4 3.9q-1.8 0.5-4.1 0.8-2.2 0.3-5 0.3h-10.5l0.9-0.8q1-0.9 1.3-2 0.3-1 0.3-2.9v-21.4q-0.2-1.4-1.6-2.7l-1-0.8h12.1c2.7 0 5.1 0.3 7 0.7 1.9 0.5 3.8 1.5 5.6 2.9 3.7 2.8 5.6 6.6 5.6 11.3zm-9.1-7.7c-2.1-2.1-5-3.1-8.5-3.1q-2.3 0-4.3 0.4v21.6q2.8 0.5 4.5 0.5c3.3 0 6-1.1 8.2-3.2 2.1-2.1 3.2-4.9 3.2-8.2 0-3.2-1-5.9-3.1-8z"/>
		<path fill-rule="evenodd" class="s0" d="m194.5 45.1q0.1-0.1 0.2-0.5v-0.7l-0.5-1.5-2.6-6.5h-10.8l-2.9 6.8q-0.3 0.9-0.3 1.8c0 0.2 0.1 0.7 1.2 1.7l0.8 0.8h-18.1l-0.3-0.6 0.3-0.2q0.9-0.9 1.3-2 0.3-1.1 0.3-2.9v-8.7h-15.7l0.1 11q0.3 1.4 1.6 2.6l0.2 0.2-0.2 0.6h-0.4-8.7l-0.2-0.6 0.2-0.2q1-0.9 1.3-2 0.3-1 0.3-2.9v-20.5c0-1.4-0.5-2.7-1.6-3.5l-0.2-0.3 0.2-0.6h0.4 9.7l-1 0.8c-0.9 0.7-1.4 1.7-1.5 2.8q-0.2 0.9-0.2 2.1v6.2h15.7v-8.1q0-0.4-0.1-0.7-0.3-1.2-1.5-2.2l-0.3-0.3 0.2-0.6h0.4 8.7l0.2 0.6-0.2 0.3q-1 0.8-1.3 1.8-0.3 1.2-0.3 3v20.9l0.1 1q0.4 1.2 1.5 2.2l0.2 0.1 0.2-0.2q0.8-0.5 1.5-1.5l1.4-2.8 8.7-21.2q0.5-1.1 0.5-1.9 0-0.7-0.9-1.5l-1.1-0.8h8.7l10 25.1q0.3 1 0.6 1.7 0.4 0.6 0.8 1.1 0.7 0.9 1.9 1.9l1 0.8h-11.1zm-8.1-22.9l-4 9.7h7.7z"/>
		<path class="s1" d="m76.4 21.2c-3.2 0-5.7-2.5-5.7-5.6 0-3 2.5-5.5 5.7-5.5 3.2 0 5.8 2.5 5.8 5.5 0 3.1-2.6 5.6-5.8 5.6z"/>
		<path class="s1" d="m52.9 6c6.1 9.2 10.6 21.8 14.3 30.7 2.5 7.2 8 17 15.4 0.9 0 0 3.6-7.5 9.3-22.2l-6.2 11.1-5 3.7-7.4 2.1-10.6-13.6c-3.8-4.9-8.6-11.4-9.8-12.7z"/>
		<path class="s2" d="m52.9 6c6.3 7.6 14.7 22.3 19.2 28.7 1.7 2.5 4.5 3.2 6.6 1.5q0 0 0 0c1.9-1.6 4.9-5.2 7.5-9.5 4.2-7.1 5.7-11.3 5.7-11.3 0 0-8.9 19.1-20.3 11.9-5.7-3.6-11.2-15.4-18.7-21.3z"/>
	</g>
</svg>