<svg width="451" height="94" viewBox="0 0 451 94" fill="none" xmlns="http://www.w3.org/2000/svg">
<g filter="url(#filter0_d_363_38)">
<path d="M2 67.9504C9.45659 72.8643 16.5907 75.3213 23.4024 75.3213C27.9435 75.3213 31.5308 74.3733 34.1641 72.4771C36.7974 70.581 38.1141 68.1373 38.1141 65.1462C38.1141 63.4504 37.6035 61.8146 36.5959 60.239C35.5815 58.6633 32.9683 56.7872 28.7497 54.6039L20.7221 50.7315C15.0457 47.9073 10.9479 45.2434 8.4355 42.7397C5.68127 39.8354 4.29744 36.4837 4.29744 32.6848C4.29744 27.5972 6.38662 23.4845 10.5583 20.3331C14.7299 17.1818 20.6348 15.6128 28.2526 15.6128C30.4425 15.6128 32.7131 15.733 35.0643 15.98C37.4154 16.227 40.2503 16.6744 43.5755 17.322V28.1848C38.3828 24.1588 32.9146 22.1425 27.1576 22.1425C23.5099 22.1425 20.5474 22.9103 18.2769 24.4459C16.0063 25.9815 14.871 28.0379 14.871 30.6217C14.871 33.7731 16.8191 36.5572 20.7086 38.9808C21.9245 39.7886 24.8467 41.2842 29.4617 43.4607L35.9107 46.4852C38.4231 47.7805 40.6533 49.1892 42.6015 50.7249C46.6522 53.8762 48.6809 57.9556 48.6809 62.9563C48.6809 68.2842 46.229 72.9111 41.3251 76.8236C36.4212 80.7427 30.0327 82.6989 22.1731 82.6989C17.0677 82.6989 11.351 81.6507 5.02294 79.5543L2 67.9504Z" fill="white"/>
<path d="M2 67.9504C9.45659 72.8643 16.5907 75.3213 23.4024 75.3213C27.9435 75.3213 31.5308 74.3733 34.1641 72.4771C36.7974 70.581 38.1141 68.1373 38.1141 65.1462C38.1141 63.4504 37.6035 61.8146 36.5959 60.239C35.5815 58.6633 32.9683 56.7872 28.7497 54.6039L20.7221 50.7315C15.0457 47.9073 10.9479 45.2434 8.4355 42.7397C5.68127 39.8354 4.29744 36.4837 4.29744 32.6848C4.29744 27.5972 6.38662 23.4845 10.5583 20.3331C14.7299 17.1818 20.6348 15.6128 28.2526 15.6128C30.4425 15.6128 32.7131 15.733 35.0643 15.98C37.4154 16.227 40.2503 16.6744 43.5755 17.322V28.1848C38.3828 24.1588 32.9146 22.1425 27.1576 22.1425C23.5099 22.1425 20.5474 22.9103 18.2769 24.4459C16.0063 25.9815 14.871 28.0379 14.871 30.6217C14.871 33.7731 16.8191 36.5572 20.7086 38.9808C21.9245 39.7886 24.8467 41.2842 29.4617 43.4607L35.9107 46.4852C38.4231 47.7805 40.6533 49.1892 42.6015 50.7249C46.6522 53.8762 48.6809 57.9556 48.6809 62.9563C48.6809 68.2842 46.229 72.9111 41.3251 76.8236C36.4212 80.7427 30.0327 82.6989 22.1731 82.6989C17.0677 82.6989 11.351 81.6507 5.02294 79.5543L2 67.9504Z" stroke="white" stroke-width="2" stroke-miterlimit="10"/>
</g>
<g filter="url(#filter1_d_363_38)">
<path d="M102.335 76.0493C96.0876 80.5626 89.6856 82.8193 83.1225 82.8193C75.5853 82.8193 69.7006 80.369 65.4887 75.4617C63.7891 73.5322 62.5732 71.162 61.841 68.3445C61.5185 66.9758 61.27 65.547 61.1088 64.0581C60.9476 62.5693 60.8669 60.6998 60.8669 58.4498V28.4053C60.8669 25.8348 60.6251 23.6582 60.1347 21.8889C59.651 20.1197 58.5964 18.5507 56.9707 17.182H74.6045C73.1468 18.4705 72.1526 19.9394 71.6219 21.5818C71.0912 23.2309 70.8292 25.501 70.8292 28.3986V56.3801C70.8292 60.6397 71.0106 63.8378 71.3733 65.9676C71.7361 68.0975 72.5288 69.8467 73.7447 71.2154C76.2571 74.1932 80.3548 75.6754 86.0312 75.6754C90.8142 75.6754 94.7843 74.3467 97.9483 71.6961C99.0836 70.7347 99.9972 69.2659 100.682 67.2963C101.368 65.3267 101.717 62.9765 101.717 60.2391V28.3919C101.717 24.613 101.475 22.1427 100.985 20.9743C100.501 19.8059 99.527 18.544 98.0693 17.1753H115.703C114.245 18.3838 113.251 19.8726 112.72 21.6419C112.19 23.4112 111.928 25.6612 111.928 28.3986V69.6598V72.1768C111.928 75.4751 113.211 78.6865 115.636 80.9432L115.696 81.0033L109.2 80.8964C106.231 80.7829 102.335 78.7866 102.335 76.0493Z" fill="white"/>
<path d="M102.335 76.0493C96.0876 80.5626 89.6856 82.8193 83.1225 82.8193C75.5853 82.8193 69.7006 80.369 65.4887 75.4617C63.7891 73.5322 62.5732 71.162 61.841 68.3445C61.5185 66.9758 61.27 65.547 61.1088 64.0581C60.9476 62.5693 60.8669 60.6998 60.8669 58.4498V28.4053C60.8669 25.8348 60.6251 23.6582 60.1347 21.8889C59.651 20.1197 58.5964 18.5507 56.9707 17.182H74.6045C73.1468 18.4705 72.1526 19.9394 71.6219 21.5818C71.0912 23.2309 70.8292 25.501 70.8292 28.3986V56.3801C70.8292 60.6397 71.0106 63.8378 71.3733 65.9676C71.7361 68.0975 72.5288 69.8467 73.7447 71.2154C76.2571 74.1932 80.3548 75.6754 86.0312 75.6754C90.8142 75.6754 94.7843 74.3467 97.9483 71.6961C99.0836 70.7347 99.9972 69.2659 100.682 67.2963C101.368 65.3267 101.717 62.9765 101.717 60.2391V28.3919C101.717 24.613 101.475 22.1427 100.985 20.9743C100.501 19.8059 99.527 18.544 98.0693 17.1753H115.703C114.245 18.3838 113.251 19.8726 112.72 21.6419C112.19 23.4112 111.928 25.6612 111.928 28.3986V69.6598V72.1768C111.928 75.4751 113.211 78.6865 115.636 80.9432L115.696 81.0033L109.2 80.8964C106.231 80.7829 102.335 78.7866 102.335 76.0493Z" stroke="white" stroke-width="2" stroke-miterlimit="10"/>
</g>
<g filter="url(#filter2_d_363_38)">
<path d="M230.494 82.8192H212.86C214.399 81.3704 215.413 79.8214 215.903 78.1723C216.387 76.5232 216.636 74.2932 216.636 71.4757V30.2145V25.3874C216.3 23.0572 215.044 20.9207 212.867 18.9912H230.501C228.963 20.2798 227.908 21.8087 227.337 23.578C226.927 25.3473 226.726 27.5639 226.726 30.2145V71.4757V76.3029C227.142 78.7198 228.398 80.8897 230.494 82.8192Z" fill="white" stroke="white" stroke-width="2" stroke-miterlimit="10"/>
<path d="M244.359 71.4757V30.2145V25.3874C244.024 23.0572 242.767 20.9207 240.591 18.9912H263.088C268.765 18.9912 273.548 19.4986 277.437 20.5001C281.327 21.5016 285.142 23.4979 288.871 26.469C296.327 32.2575 300.062 40.1025 300.062 49.9905C300.062 58.6767 297.268 66.1144 291.672 72.3103C288.266 76.0892 283.967 78.8266 278.781 80.5158C276.268 81.2435 273.467 81.8043 270.39 82.2049C267.307 82.6055 263.861 82.8058 260.052 82.8058H240.591C242.129 81.357 243.144 79.808 243.634 78.1589C244.111 76.5232 244.359 74.2932 244.359 71.4757ZM264.909 76.1693C271.962 76.1693 277.86 73.7791 282.603 68.992C287.346 64.2116 289.717 58.1159 289.717 50.7249C289.717 43.4942 287.426 37.5187 282.845 32.8184C278.263 28.1181 272.083 25.7612 264.297 25.7612C260.73 25.7612 257.445 26.1618 254.449 26.963V75.0744C258.829 75.8088 262.316 76.1693 264.909 76.1693Z" fill="white" stroke="white" stroke-width="2" stroke-miterlimit="10"/>
<path d="M327.107 82.819H309.615C309.588 82.819 309.581 82.7856 309.595 82.7723C311.106 81.3368 312.1 79.8079 312.584 78.1788C313.068 76.5297 313.316 74.2997 313.316 71.4822V30.221V27.3167C313.316 24.1587 311.966 21.1542 309.601 19.0511C309.581 19.0311 309.595 19.0044 309.621 19.0044H327.181C325.22 20.6335 324.011 22.9903 323.682 25.5074C323.5 26.8761 323.413 28.4384 323.413 30.1943V44.4822C323.413 44.4955 323.426 44.5089 323.44 44.5089H358.042C358.056 44.5089 358.069 44.4955 358.069 44.4822V30.1943V26.1016C358.069 25.514 358.009 24.9332 357.861 24.3657C357.35 22.4562 356.181 20.6869 354.354 19.0578C354.334 19.0378 354.348 19.0111 354.374 19.0111H371.86C371.887 19.0111 371.894 19.0445 371.881 19.0578C370.369 20.333 369.335 21.8486 368.777 23.5912C368.777 23.5912 368.777 23.5912 368.777 23.5979C368.374 25.3672 368.172 27.5771 368.172 30.2344V71.4956V75.2545C368.287 76.0824 368.401 76.8969 368.515 77.7248C369.113 79.5675 370.235 81.25 371.887 82.7923C371.907 82.8123 371.894 82.839 371.867 82.839H354.374C354.348 82.839 354.341 82.8057 354.354 82.7923C355.866 81.3568 356.86 79.8212 357.344 78.1855C357.827 76.5364 358.076 74.2997 358.076 71.4755V51.7797C358.076 51.7663 358.062 51.753 358.049 51.753H323.446C323.433 51.753 323.42 51.7663 323.42 51.7797V71.4555V75.9956C323.44 76.1892 323.453 76.3828 323.473 76.5764C323.937 78.8598 325.159 80.9229 327.134 82.7656C327.141 82.7856 327.134 82.819 327.107 82.819Z" fill="white" stroke="white" stroke-width="2" stroke-miterlimit="10"/>
<path d="M386.283 78.3394C386.283 79.4677 387.216 80.9633 389.077 82.8127H373.996C375.212 82.0048 376.347 80.7563 377.402 79.0671L380.445 73.145L398.563 27.4573C399.295 25.6279 399.658 24.0789 399.658 22.8104C399.658 21.5418 398.885 20.2733 397.347 18.998H411.944L432.493 72.4239C432.977 73.7926 433.467 74.9811 433.951 75.9892C434.435 76.9974 435.006 77.9054 435.651 78.7066C436.705 79.9952 438.082 81.3639 439.789 82.8194H421.423L423.492 80.3824C423.734 79.9818 423.935 79.4076 424.103 78.6799L424.09 76.9774L422.914 73.579L417.392 58.8905H393.289L387.116 74.1131C386.558 75.5619 386.283 76.9707 386.283 78.3394ZM414.927 52.481L405.791 27.711L395.97 52.481H414.927Z" fill="white" stroke="white" stroke-width="2" stroke-miterlimit="10"/>
</g>
<path d="M159.294 40.3852C167.5 40.3852 174.152 33.7418 174.152 25.5461C174.152 17.3504 167.5 10.707 159.294 10.707C151.088 10.707 144.437 17.3504 144.437 25.5461C144.437 33.7418 151.088 40.3852 159.294 40.3852Z" fill="#FF5717" stroke="#FF5717" stroke-width="0.75" stroke-miterlimit="10"/>
<path d="M208.252 1.31373L172.956 52.6071C160.113 71.2842 148.483 55.6748 148.483 55.6748L124.842 22.8958C124.302 22.1455 123.159 22.8738 123.602 23.6903L152.486 81.1242C159.846 91.2247 166.079 82.4999 166.079 82.4999L209.492 2.10823C209.935 1.29166 208.791 0.563364 208.252 1.31373Z" fill="#FF5717" stroke="#FF5717" stroke-width="0.75" stroke-miterlimit="10"/>
<defs>
<filter id="filter0_d_363_38" x="0.375977" y="14.6128" width="57.3047" height="79.0859" filterUnits="userSpaceOnUse" color-interpolation-filters="sRGB">
<feFlood flood-opacity="0" result="BackgroundImageFix"/>
<feColorMatrix in="SourceAlpha" type="matrix" values="0 0 0 0 0 0 0 0 0 0 0 0 0 0 0 0 0 0 127 0" result="hardAlpha"/>
<feOffset dx="4" dy="6"/>
<feGaussianBlur stdDeviation="2"/>
<feComposite in2="hardAlpha" operator="out"/>
<feColorMatrix type="matrix" values="0 0 0 0 0 0 0 0 0 0 0 0 0 0 0 0 0 0 0.38 0"/>
<feBlend mode="normal" in2="BackgroundImageFix" result="effect1_dropShadow_363_38"/>
<feBlend mode="normal" in="SourceGraphic" in2="effect1_dropShadow_363_38" result="shape"/>
</filter>
<filter id="filter1_d_363_38" x="54.2305" y="16.1753" width="72.2461" height="77.644" filterUnits="userSpaceOnUse" color-interpolation-filters="sRGB">
<feFlood flood-opacity="0" result="BackgroundImageFix"/>
<feColorMatrix in="SourceAlpha" type="matrix" values="0 0 0 0 0 0 0 0 0 0 0 0 0 0 0 0 0 0 127 0" result="hardAlpha"/>
<feOffset dx="4" dy="6"/>
<feGaussianBlur stdDeviation="2"/>
<feComposite in2="hardAlpha" operator="out"/>
<feColorMatrix type="matrix" values="0 0 0 0 0 0 0 0 0 0 0 0 0 0 0 0 0 0 0.38 0"/>
<feBlend mode="normal" in2="BackgroundImageFix" result="effect1_dropShadow_363_38"/>
<feBlend mode="normal" in="SourceGraphic" in2="effect1_dropShadow_363_38" result="shape"/>
</filter>
<filter id="filter2_d_363_38" x="210.231" y="17.9912" width="240.271" height="75.8477" filterUnits="userSpaceOnUse" color-interpolation-filters="sRGB">
<feFlood flood-opacity="0" result="BackgroundImageFix"/>
<feColorMatrix in="SourceAlpha" type="matrix" values="0 0 0 0 0 0 0 0 0 0 0 0 0 0 0 0 0 0 127 0" result="hardAlpha"/>
<feOffset dx="4" dy="6"/>
<feGaussianBlur stdDeviation="2"/>
<feComposite in2="hardAlpha" operator="out"/>
<feColorMatrix type="matrix" values="0 0 0 0 0 0 0 0 0 0 0 0 0 0 0 0 0 0 0.38 0"/>
<feBlend mode="normal" in2="BackgroundImageFix" result="effect1_dropShadow_363_38"/>
<feBlend mode="normal" in="SourceGraphic" in2="effect1_dropShadow_363_38" result="shape"/>
</filter>
</defs>
</svg>
